# xmcd CD database file
#
# Track frame offsets:
#	150
#	20953
#	43233
#	64753
#	87880
#	104748
#	122158
#	138623
#	160088
#	180983
#	202935
#	223553
#
# Disc length: 3242 seconds
#
# Revision: 0
# Processed by: cddbd v1.4PL0 Copyright (c) Steve Scherf et al.
# Submitted via: CDex 1.50beta10
#
DISCID=af0ca80c
DTITLE=Latimore - Catchin Up
DYEAR=1900
DGENRE=Blues
TTITLE0=Lay another log on the fire
TTITLE1=Meet me in teh middle fo the bed
TTITLE2=Skinny little white girl
TTITLE3=Your sweetness is my weakness
TTITLE4=Snatchin it back
TTITLE5=Catches up on love
TTITLE6=I smell a rat
TTITLE7=Sharke the sheets
TTITLE8=If I had loved you more
TTITLE9=Somethin bout cha
TTITLE10=Feed your hungry man
TTITLE11=Deal down and dirty
EXTD=
EXTT0=
EXTT1=
EXTT2=
EXTT3=
EXTT4=
EXTT5=
EXTT6=
EXTT7=
EXTT8=
EXTT9=
EXTT10=
EXTT11=
PLAYORDER=
